<svg width="67" height="67" viewBox="0 0 67 67" fill="none" xmlns="http://www.w3.org/2000/svg">
<g clip-path="url(#clip0_10_120)">
<path d="M2.14744 12.1891H13.3814C14.334 15.81 17.635 18.4883 21.5505 18.4883C25.466 18.4883 28.7671 15.81 29.7197 12.1891H64.8526C66.0385 12.1891 67 11.2277 67 10.0417C67 8.85575 66.0385 7.89427 64.8526 7.89427H29.7194C28.7668 4.27341 25.4657 1.59512 21.5502 1.59512C17.6347 1.59512 14.3337 4.27341 13.3811 7.89427H2.14744C0.961479 7.89427 0 8.85575 0 10.0417C0 11.2277 0.961479 12.1891 2.14744 12.1891ZM21.5505 5.88999C23.8397 5.88999 25.7022 7.75254 25.7022 10.0417C25.7022 12.3309 23.8397 14.1934 21.5505 14.1934C19.2614 14.1934 17.3988 12.3309 17.3988 10.0417C17.3988 7.75254 19.2614 5.88999 21.5505 5.88999Z" fill="white"/>
<path d="M64.8526 31.3526H50.5392C49.5866 27.7317 46.2856 25.0534 42.3701 25.0534C38.4546 25.0534 35.1535 27.7317 34.2009 31.3526H2.14744C0.961479 31.3526 0 32.3141 0 33.5C0 34.686 0.961479 35.6475 2.14744 35.6475H34.2012C35.1538 39.268 38.4549 41.9466 42.3703 41.9466C46.2858 41.9466 49.5869 39.268 50.5395 35.6475H64.8529C66.0388 35.6475 67.0003 34.686 67.0003 33.5C67.0003 32.3141 66.0385 31.3526 64.8526 31.3526ZM42.3703 37.6517C40.0812 37.6517 38.2186 35.7892 38.2186 33.5C38.2186 31.2109 40.0812 29.3483 42.3703 29.3483C44.6595 29.3483 46.5221 31.2109 46.5221 33.5C46.5221 35.7892 44.6595 37.6517 42.3703 37.6517Z" fill="white"/>
<path d="M64.8526 54.8109H29.7194C28.7668 51.1903 25.4657 48.5117 21.5502 48.5117C17.6347 48.5117 14.3337 51.1903 13.3811 54.8109H2.14744C0.961479 54.8109 0 55.7723 0 56.9583C0 58.1443 0.961479 59.1057 2.14744 59.1057H13.3814C14.334 62.7266 17.635 65.4049 21.5505 65.4049C25.466 65.4049 28.7671 62.7266 29.7197 59.1057H64.8526C66.0385 59.1057 67 58.1443 67 56.9583C67 55.7723 66.0385 54.8109 64.8526 54.8109ZM21.5505 61.11C19.2614 61.11 17.3988 59.2475 17.3988 56.9583C17.3988 54.6691 19.2614 52.8066 21.5505 52.8066C23.8397 52.8066 25.7022 54.6691 25.7022 56.9583C25.7022 59.2475 23.8397 61.11 21.5505 61.11Z" fill="white"/>
</g>
<defs>
<clipPath id="clip0_10_120">
<rect width="67" height="67" fill="white"/>
</clipPath>
</defs>
</svg>
