<svg width="67" height="67" viewBox="0 0 67 67" fill="none" xmlns="http://www.w3.org/2000/svg">
<path d="M64.7836 62.4949L45.8374 44.3687C50.3224 39.8328 52.804 33.9368 52.804 27.663C52.804 21.1599 50.1589 15.0469 45.355 10.4507C35.4564 0.982225 19.355 0.982225 9.45906 10.4507C4.6565 15.0469 2.01 21.1599 2.01 27.663C2.01 34.1673 4.6565 40.2804 9.4604 44.8766C14.4077 49.6108 20.908 51.9786 27.4084 51.9786C33.7023 51.9786 39.9843 49.7381 44.8699 45.2974L63.8577 63.4637C63.9863 63.5884 64.1538 63.65 64.32 63.65C64.4969 63.65 64.6724 63.5803 64.8037 63.4436C64.9284 63.3137 64.99 63.1462 64.99 62.98C64.99 62.8031 64.9203 62.6276 64.7836 62.4949ZM44.429 43.9091C35.0437 52.8898 19.7717 52.8898 10.3863 43.9091C5.84776 39.5675 3.35 33.7975 3.35 27.6643C3.35 21.5298 5.8491 15.7611 10.3863 11.4208C15.079 6.93182 21.243 4.68598 27.407 4.68598C33.571 4.68598 39.7364 6.93182 44.429 11.4208C48.9663 15.7611 51.464 21.5298 51.464 27.6643C51.464 33.7975 48.9663 39.5675 44.429 43.9091Z" fill="black"/>
</svg>
